<svg width="128" height="128"
    xmlns="http://www.w3.org/2000/svg">

    <!-- background -->
    <rect id="bg" height="128" width="128" fill="none" />

    <!-- tray back fill-->
    <g style="fill:sienna;">
        <path d="M113.7,112.4H13.9c-3.3,0-6.1-2.7-6.1-6.1V82.2c0-3.3,2.7-6.1,6.1-6.1h99.8 c3.3,0,6.1,2.7,6.1,6.1v24.0C119.9,109.6,117.1,112.4,113.7,112.4z"/>
    </g>

    <!-- tray back outline -->
    <g style="fill:black;opacity:0.2;">
        <path d="M113.7,79.1c1.7,0,3.1,1.4,3.1,3.1v24.0c0,1.7-1.4,3.1-3.1,3.1H13.9 c-1.7,0-3.1-1.4-3.1-3.1V82.2c0-1.7,1.4-3.1,3.1-3.1H113.7 M113.7,76.1H13.9c-3.3,0-6.1,2.7-6.1,6.1v24.0 c0,3.3,2.7,6.1,6.1,6.1h99.8c3.3,0,6.1-2.7,6.1-6.1V82.2C119.9,78.8,117.1,76.1,113.7,76.1L113.7,76.1z"/>
    </g>

    <!-- tray paper -->
    <g style="fill:white;">
        <rect height="21.7" width="104.0" x="11.9" y="87.8"/>
    </g>
    <g style="fill:gray;stroke:darkgray;stroke-width:2;stroke-linecap:round;stroke-linejoin:round;stroke-miterlimit:10;">
        <line x1="32.1" x2="95.8" y1="93.0" y2="93.0"/>
        <path d="M113.9,89.8v17.7H13.9V89.8H113.9 M115.9,87.8H11.9v21.7h104.0V87.8L115.9,87.8z"/>
        <line x1="32.1" x2="95.8" y1="99.0" y2="99.0"/>
    </g>

    <!-- tray front fill -->
    <g style="fill:sandybrown;">
        <path d="M92,76.1c0,13.1-8.3,27.8-28,27.8s-28-14.7-28-27.8c0-0.0-26.0,0-26.0,0 c-3.3,0-6,2.6-6,5.9v36.0c0,3.2,2.6,5.9,6,5.9h108c3.3,0,6-2.6,6-5.9V82.0c0-3.2-2.6-5.9-6-5.9 C117.9,76.1,92,76.1,92,76.1z"/>
    </g>

    <!-- tray front outline -->
    <g style="fill:black;opacity:0.2;">
        <path d="M98.7,79.1c7.6,0,19.2,0.0,19.2,0.0c1.6,0,3,1.3,3,2.9v36.0c0,1.6-1.3,2.9-3,2.9 h-108c-1.6,0-3-1.3-3-2.9V82.0c0-1.6,1.3-2.9,3-2.9c0,0,11.5-0.0,19.3-0.0c1.6,0,2.9,0,3.8,0 c1.2,13.9,11,27.8,30.8,27.8s29.6-13.9,30.8-27.8C95.8,79.1,97.0,79.1,98.7,79.1 M98.7,76.1 c-3.8,0-6.7,0-6.7,0.0c0,13.1-8.3,27.8-28,27.8s-28-14.7-28-27.8c0,0-2.9-0.0-6.7-0.0c-7.7,0-19.3,0.0-19.3,0.0 c-3.3,0-6,2.6-6,5.9v36.0c0,3.2,2.6,5.9,6,5.9h108c3.3,0,6-2.6,6-5.9V82.0c0-3.2-2.6-5.9-6-5.9 C117.9,76.1,106.4,76.1,98.7,76.1L98.7,76.1z"/>
    </g>

    <!-- arrow fill -->
    <g style="fill:deepskyblue;">
        <path d="M63.0,67.5L36.1,45.7c-1.2-0.9-0.5-2.9,1.0-2.9H91c1.5,0,2.2,1.9,1.0,2.9 L65.1,67.5C64.5,68.0,63.6,68.0,63.0,67.5z"/>
        <path d="M76.9,47.3h-25.8c-1.1,0-2-0.9-2-2V11.1c0-1.1,0.9-2,2-2h25.8c1.1,0,2,0.9,2,2v34.2 C78.9,46.5,78.0,47.3,76.9,47.3z"/>
    </g>

    <!-- arrow outline -->
    <g style="fill:black;opacity:0.2;">
        <path d="M76.4,11.5v31.1c0,1.3,1.1,2.4,2.4,2.4h9.7l-24.6,19.9l-24.6-19.9h9.7 c1.3,0,2.4-1.1,2.4-2.4V11.5H76.4 M77.3,9.1h-26.5c-0.9,0-1.6,0.7-1.6,1.6v32.0H37.1c-1.5,0-2.2,1.9-1.0,2.9 l26.9,21.8c0.3,0.2,0.6,0.3,1.0,0.3c0.3,0,0.7-0.1,1.0-0.3L92.0,45.7c1.2-0.9,0.5-2.9-1.0-2.9H78.9V10.7 C78.9,9.8,78.2,9.1,77.3,9.1L77.3,9.1z"/>
    </g>
</svg>
